%
M48
M72
T01C0.0320
T02C0.0394
T03C0.0400
%
T01
X2600Y4600
X4600Y4600
T02
X11600Y1600
X12600Y1600
X13600Y1600
X14600Y1600
X15600Y1600
X16600Y1600
X17600Y1600
X18600Y1600
X20600Y1600
X21600Y1600
X22600Y1600
X23600Y1600
X24600Y1600
X25600Y1600
X25600Y20600
X24600Y20600
X23600Y20600
X22600Y20600
X21600Y20600
X20600Y20600
X19600Y20600
X18600Y20600
X17000Y20600
X16000Y20600
X15000Y20600
X14000Y20600
X13000Y20600
X12000Y20600
X11000Y20600
X10000Y20600
X9000Y20600
X8000Y20600
T03
X8100Y17600
X9100Y17600
X10100Y17600
X11100Y17600
X12100Y17600
X13100Y17600
X14100Y17600
X15100Y17600
X16100Y17600
X17100Y17600
X18100Y17600
X19100Y17600
X20100Y17600
X21100Y17600
X22100Y17600
X23100Y17600
X24100Y17600
X25100Y17600
X3600Y12100
X2600Y12100
X1600Y12100
X1600Y7100
X2600Y7100
X3600Y7100
M30
