G75*
G70*
%OFA0B0*%
%FSLAX24Y24*%
%IPPOS*%
%LPD*%
%AMOC8*
5,1,8,0,0,1.08239X$1,22.5*
%
%ADD10C,0.0000*%
%ADD11C,0.0030*%
%ADD12C,0.0050*%
%ADD13C,0.0060*%
%ADD14C,0.0240*%
%ADD15C,0.0040*%
D10*
X000100Y000100D02*
X000100Y022096D01*
X028470Y022096D01*
X028470Y000100D01*
X000100Y000100D01*
D11*
X012415Y002111D02*
X012415Y002234D01*
X012415Y002173D02*
X012785Y002173D01*
X012785Y002234D02*
X012785Y002111D01*
X012723Y002357D02*
X012476Y002357D01*
X012415Y002418D01*
X012415Y002542D01*
X012476Y002603D01*
X012723Y002603D01*
X012785Y002542D01*
X012785Y002418D01*
X012723Y002357D01*
X012662Y002725D02*
X012538Y002848D01*
X012538Y002910D01*
X012538Y002725D02*
X012785Y002725D01*
X013415Y002664D02*
X013415Y002541D01*
X013476Y002479D01*
X013538Y002479D01*
X013600Y002541D01*
X013600Y002664D01*
X013662Y002726D01*
X013723Y002726D01*
X013785Y002664D01*
X013785Y002541D01*
X013723Y002479D01*
X013785Y002358D02*
X013662Y002234D01*
X013662Y002296D02*
X013662Y002111D01*
X013785Y002111D02*
X013415Y002111D01*
X013415Y002296D01*
X013476Y002358D01*
X013600Y002358D01*
X013662Y002296D01*
X013415Y002664D02*
X013476Y002726D01*
X013415Y002848D02*
X013415Y003095D01*
X013415Y002971D02*
X013785Y002971D01*
X014297Y002424D02*
X014359Y002485D01*
X014482Y002485D01*
X014544Y002424D01*
X014544Y002362D01*
X014482Y002300D01*
X014544Y002238D01*
X014544Y002177D01*
X014482Y002115D01*
X014359Y002115D01*
X014297Y002177D01*
X014420Y002300D02*
X014482Y002300D01*
X014665Y002362D02*
X014789Y002115D01*
X014912Y002362D01*
X015397Y002300D02*
X015397Y002485D01*
X015644Y002485D01*
X015582Y002362D02*
X015644Y002300D01*
X015644Y002177D01*
X015582Y002115D01*
X015459Y002115D01*
X015397Y002177D01*
X015397Y002300D02*
X015520Y002362D01*
X015582Y002362D01*
X015765Y002362D02*
X015889Y002115D01*
X016012Y002362D01*
X016669Y002424D02*
X016669Y002177D01*
X016731Y002115D01*
X016854Y002115D01*
X016916Y002177D01*
X016916Y002300D01*
X016792Y002300D01*
X016669Y002424D02*
X016731Y002485D01*
X016854Y002485D01*
X016916Y002424D01*
X017037Y002362D02*
X017222Y002362D01*
X017284Y002300D01*
X017284Y002115D01*
X017406Y002177D02*
X017406Y002300D01*
X017467Y002362D01*
X017652Y002362D01*
X017652Y002485D02*
X017652Y002115D01*
X017467Y002115D01*
X017406Y002177D01*
X017037Y002115D02*
X017037Y002362D01*
X018247Y002485D02*
X018247Y002238D01*
X018370Y002115D01*
X018494Y002238D01*
X018494Y002485D01*
X018615Y002362D02*
X018677Y002362D01*
X018677Y002115D01*
X018615Y002115D02*
X018739Y002115D01*
X018861Y002115D02*
X018861Y002362D01*
X019046Y002362D01*
X019108Y002300D01*
X019108Y002115D01*
X018677Y002485D02*
X018677Y002547D01*
X020465Y002424D02*
X020465Y002177D01*
X020712Y002424D01*
X020712Y002177D01*
X020650Y002115D01*
X020527Y002115D01*
X020465Y002177D01*
X020465Y002424D02*
X020527Y002485D01*
X020650Y002485D01*
X020712Y002424D01*
X021465Y002362D02*
X021588Y002485D01*
X021588Y002115D01*
X021465Y002115D02*
X021712Y002115D01*
X022465Y002115D02*
X022712Y002362D01*
X022712Y002424D01*
X022650Y002485D01*
X022527Y002485D01*
X022465Y002424D01*
X022465Y002115D02*
X022712Y002115D01*
X023465Y002177D02*
X023527Y002115D01*
X023650Y002115D01*
X023712Y002177D01*
X023712Y002238D01*
X023650Y002300D01*
X023588Y002300D01*
X023650Y002300D02*
X023712Y002362D01*
X023712Y002424D01*
X023650Y002485D01*
X023527Y002485D01*
X023465Y002424D01*
X024465Y002300D02*
X024712Y002300D01*
X024650Y002115D02*
X024650Y002485D01*
X024465Y002300D01*
X025465Y002300D02*
X025588Y002362D01*
X025650Y002362D01*
X025712Y002300D01*
X025712Y002177D01*
X025650Y002115D01*
X025527Y002115D01*
X025465Y002177D01*
X025465Y002300D02*
X025465Y002485D01*
X025712Y002485D01*
X024498Y001167D02*
X024374Y001167D01*
X024436Y001167D02*
X024436Y000797D01*
X024374Y000797D02*
X024498Y000797D01*
X024620Y000797D02*
X024620Y001044D01*
X024805Y001044D01*
X024867Y000982D01*
X024867Y000797D01*
X023885Y000797D02*
X023699Y000797D01*
X023638Y000859D01*
X023638Y000982D01*
X023699Y001044D01*
X023885Y001044D01*
X023885Y000735D01*
X023823Y000674D01*
X023761Y000674D01*
X023516Y000859D02*
X023516Y000982D01*
X023455Y001044D01*
X023331Y001044D01*
X023269Y000982D01*
X023269Y000859D01*
X023331Y000797D01*
X023455Y000797D01*
X023516Y000859D01*
X023147Y000797D02*
X023024Y000797D01*
X023086Y000797D02*
X023086Y001167D01*
X023024Y001167D01*
X022841Y001044D02*
X022902Y000982D01*
X022902Y000797D01*
X022717Y000797D01*
X022656Y000859D01*
X022717Y000920D01*
X022902Y000920D01*
X022841Y001044D02*
X022717Y001044D01*
X022534Y000982D02*
X022534Y000797D01*
X022534Y000982D02*
X022472Y001044D01*
X022287Y001044D01*
X022287Y000797D01*
X022166Y000797D02*
X022166Y001044D01*
X022042Y001167D01*
X021919Y001044D01*
X021919Y000797D01*
X021919Y000982D02*
X022166Y000982D01*
X010185Y018915D02*
X009938Y018915D01*
X009815Y019038D01*
X009938Y019161D01*
X010185Y019161D01*
X010185Y019283D02*
X009815Y019283D01*
X009815Y019468D01*
X009876Y019530D01*
X010000Y019530D01*
X010062Y019468D01*
X010062Y019283D01*
X010062Y019406D02*
X010185Y019530D01*
X010123Y019651D02*
X010000Y019651D01*
X009938Y019713D01*
X009938Y019836D01*
X010000Y019898D01*
X010062Y019898D01*
X010062Y019651D01*
X010123Y019651D02*
X010185Y019713D01*
X010185Y019836D01*
X010185Y020081D02*
X009876Y020081D01*
X009815Y020143D01*
X010000Y020143D02*
X010000Y020019D01*
X010815Y020094D02*
X011185Y020094D01*
X011185Y019908D01*
X011123Y019847D01*
X011000Y019847D01*
X010938Y019908D01*
X010938Y020094D01*
X011000Y019725D02*
X011185Y019725D01*
X011000Y019725D02*
X010938Y019664D01*
X010938Y019478D01*
X011185Y019478D01*
X011185Y019357D02*
X011185Y019172D01*
X011123Y019110D01*
X011000Y019110D01*
X010938Y019172D01*
X010938Y019357D01*
X011247Y019357D01*
X011308Y019295D01*
X011308Y019233D01*
X011728Y019715D02*
X011975Y019715D01*
X011852Y019715D02*
X011852Y020085D01*
X011728Y019962D01*
X012097Y020024D02*
X012158Y020085D01*
X012282Y020085D01*
X012344Y020024D01*
X012344Y019962D01*
X012282Y019900D01*
X012344Y019838D01*
X012344Y019777D01*
X012282Y019715D01*
X012158Y019715D01*
X012097Y019777D01*
X012220Y019900D02*
X012282Y019900D01*
X012728Y019962D02*
X012852Y020085D01*
X012852Y019715D01*
X012975Y019715D02*
X012728Y019715D01*
X013097Y019715D02*
X013344Y019962D01*
X013344Y020024D01*
X013282Y020085D01*
X013158Y020085D01*
X013097Y020024D01*
X013097Y019715D02*
X013344Y019715D01*
X013728Y019715D02*
X013975Y019715D01*
X014097Y019715D02*
X014344Y019715D01*
X014220Y019715D02*
X014220Y020085D01*
X014097Y019962D01*
X013852Y020085D02*
X013852Y019715D01*
X013728Y019962D02*
X013852Y020085D01*
X014728Y019962D02*
X014852Y020085D01*
X014852Y019715D01*
X014975Y019715D02*
X014728Y019715D01*
X015097Y019777D02*
X015344Y020024D01*
X015344Y019777D01*
X015282Y019715D01*
X015158Y019715D01*
X015097Y019777D01*
X015097Y020024D01*
X015158Y020085D01*
X015282Y020085D01*
X015344Y020024D01*
X015897Y020024D02*
X015897Y019962D01*
X015958Y019900D01*
X016144Y019900D01*
X016144Y019777D02*
X016144Y020024D01*
X016082Y020085D01*
X015958Y020085D01*
X015897Y020024D01*
X015897Y019777D02*
X015958Y019715D01*
X016082Y019715D01*
X016144Y019777D01*
X016897Y019777D02*
X016958Y019715D01*
X017082Y019715D01*
X017144Y019777D01*
X017144Y019838D01*
X017082Y019900D01*
X016958Y019900D01*
X016897Y019962D01*
X016897Y020024D01*
X016958Y020085D01*
X017082Y020085D01*
X017144Y020024D01*
X017144Y019962D01*
X017082Y019900D01*
X016958Y019900D02*
X016897Y019838D01*
X016897Y019777D01*
X018497Y019777D02*
X018497Y019715D01*
X018497Y019777D02*
X018744Y020024D01*
X018744Y020085D01*
X018497Y020085D01*
X019497Y019900D02*
X019682Y019900D01*
X019744Y019838D01*
X019744Y019777D01*
X019682Y019715D01*
X019558Y019715D01*
X019497Y019777D01*
X019497Y019900D01*
X019620Y020024D01*
X019744Y020085D01*
X020497Y020085D02*
X020497Y019900D01*
X020620Y019962D01*
X020682Y019962D01*
X020744Y019900D01*
X020744Y019777D01*
X020682Y019715D01*
X020558Y019715D01*
X020497Y019777D01*
X020497Y020085D02*
X020744Y020085D01*
X021497Y019900D02*
X021744Y019900D01*
X021682Y019715D02*
X021682Y020085D01*
X021497Y019900D01*
X022497Y019777D02*
X022558Y019715D01*
X022682Y019715D01*
X022744Y019777D01*
X022744Y019838D01*
X022682Y019900D01*
X022620Y019900D01*
X022682Y019900D02*
X022744Y019962D01*
X022744Y020024D01*
X022682Y020085D01*
X022558Y020085D01*
X022497Y020024D01*
X023497Y020024D02*
X023558Y020085D01*
X023682Y020085D01*
X023744Y020024D01*
X023744Y019962D01*
X023497Y019715D01*
X023744Y019715D01*
X024497Y019715D02*
X024744Y019715D01*
X024620Y019715D02*
X024620Y020085D01*
X024497Y019962D01*
X025497Y020024D02*
X025497Y019777D01*
X025744Y020024D01*
X025744Y019777D01*
X025682Y019715D01*
X025558Y019715D01*
X025497Y019777D01*
X025497Y020024D02*
X025558Y020085D01*
X025682Y020085D01*
X025744Y020024D01*
X023981Y021177D02*
X023981Y021424D01*
X023919Y021485D01*
X023796Y021485D01*
X023734Y021424D01*
X023734Y021177D01*
X023796Y021115D01*
X023919Y021115D01*
X023981Y021177D01*
X023613Y021485D02*
X023366Y021115D01*
X023244Y021115D02*
X023120Y021115D01*
X023182Y021115D02*
X023182Y021485D01*
X023120Y021485D02*
X023244Y021485D01*
X022630Y021115D02*
X022507Y021115D01*
X022568Y021115D02*
X022568Y021485D01*
X022507Y021485D01*
X022323Y021362D02*
X022385Y021300D01*
X022385Y021115D01*
X022200Y021115D01*
X022138Y021177D01*
X022200Y021238D01*
X022385Y021238D01*
X022323Y021362D02*
X022200Y021362D01*
X022016Y021362D02*
X021893Y021362D01*
X021954Y021424D02*
X021954Y021177D01*
X022016Y021115D01*
X021771Y021115D02*
X021647Y021115D01*
X021709Y021115D02*
X021709Y021362D01*
X021647Y021362D01*
X021526Y021362D02*
X021341Y021362D01*
X021279Y021300D01*
X021279Y021177D01*
X021341Y021115D01*
X021526Y021115D01*
X021526Y021053D02*
X021526Y021362D01*
X021709Y021485D02*
X021709Y021547D01*
X021095Y021547D02*
X021095Y021485D01*
X021095Y021362D02*
X021095Y021115D01*
X021033Y021115D02*
X021157Y021115D01*
X020912Y021177D02*
X020912Y021424D01*
X020850Y021485D01*
X020665Y021485D01*
X020665Y021115D01*
X020850Y021115D01*
X020912Y021177D01*
X021033Y021362D02*
X021095Y021362D01*
X021402Y020992D02*
X021464Y020992D01*
X021526Y021053D01*
X016381Y021177D02*
X016381Y021424D01*
X016319Y021485D01*
X016196Y021485D01*
X016134Y021424D01*
X016134Y021177D01*
X016196Y021115D01*
X016319Y021115D01*
X016381Y021177D01*
X016013Y021485D02*
X015766Y021115D01*
X015644Y021115D02*
X015520Y021115D01*
X015582Y021115D02*
X015582Y021485D01*
X015520Y021485D02*
X015644Y021485D01*
X014968Y021485D02*
X014968Y021115D01*
X014907Y021115D02*
X015030Y021115D01*
X014785Y021115D02*
X014600Y021115D01*
X014538Y021177D01*
X014600Y021238D01*
X014785Y021238D01*
X014785Y021300D02*
X014785Y021115D01*
X014785Y021300D02*
X014723Y021362D01*
X014600Y021362D01*
X014416Y021362D02*
X014293Y021362D01*
X014354Y021424D02*
X014354Y021177D01*
X014416Y021115D01*
X014171Y021115D02*
X014047Y021115D01*
X014109Y021115D02*
X014109Y021362D01*
X014047Y021362D01*
X013926Y021362D02*
X013741Y021362D01*
X013679Y021300D01*
X013679Y021177D01*
X013741Y021115D01*
X013926Y021115D01*
X013926Y021053D02*
X013926Y021362D01*
X014109Y021485D02*
X014109Y021547D01*
X013495Y021547D02*
X013495Y021485D01*
X013495Y021362D02*
X013495Y021115D01*
X013433Y021115D02*
X013557Y021115D01*
X013312Y021177D02*
X013312Y021424D01*
X013250Y021485D01*
X013065Y021485D01*
X013065Y021115D01*
X013250Y021115D01*
X013312Y021177D01*
X013433Y021362D02*
X013495Y021362D01*
X013802Y020992D02*
X013864Y020992D01*
X013926Y021053D01*
X014907Y021485D02*
X014968Y021485D01*
X010000Y019161D02*
X010000Y018915D01*
X009185Y019222D02*
X009123Y019160D01*
X009185Y019222D02*
X009185Y019345D01*
X009123Y019407D01*
X009062Y019407D01*
X009000Y019345D01*
X009000Y019222D01*
X008938Y019160D01*
X008876Y019160D01*
X008815Y019222D01*
X008815Y019345D01*
X008876Y019407D01*
X008815Y019528D02*
X008815Y019714D01*
X008876Y019775D01*
X009123Y019775D01*
X009185Y019714D01*
X009185Y019528D01*
X008815Y019528D01*
X008938Y019897D02*
X008815Y020020D01*
X008938Y020144D01*
X009185Y020144D01*
X009000Y020144D02*
X009000Y019897D01*
X008938Y019897D02*
X009185Y019897D01*
X008185Y019897D02*
X008185Y020144D01*
X008185Y019897D02*
X007815Y019897D01*
X007876Y019775D02*
X007815Y019714D01*
X007815Y019590D01*
X007876Y019528D01*
X008123Y019528D01*
X008185Y019590D01*
X008185Y019714D01*
X008123Y019775D01*
X008123Y019407D02*
X008185Y019345D01*
X008185Y019222D01*
X008123Y019160D01*
X008000Y019222D02*
X008000Y019345D01*
X008062Y019407D01*
X008123Y019407D01*
X008000Y019222D02*
X007938Y019160D01*
X007876Y019160D01*
X007815Y019222D01*
X007815Y019345D01*
X007876Y019407D01*
D12*
X007745Y018795D02*
X007595Y018645D01*
X007745Y018795D02*
X007745Y018345D01*
X007595Y018345D02*
X007895Y018345D01*
X008055Y018420D02*
X008055Y018570D01*
X008281Y018570D01*
X008356Y018495D01*
X008356Y018420D01*
X008281Y018345D01*
X008130Y018345D01*
X008055Y018420D01*
X008055Y018570D02*
X008206Y018720D01*
X008356Y018795D01*
X008516Y018720D02*
X008591Y018795D01*
X008741Y018795D01*
X008816Y018720D01*
X008516Y018420D01*
X008591Y018345D01*
X008741Y018345D01*
X008816Y018420D01*
X008816Y018720D01*
X008976Y018720D02*
X009051Y018795D01*
X009201Y018795D01*
X009276Y018720D01*
X009276Y018645D01*
X008976Y018345D01*
X009276Y018345D01*
X009437Y018345D02*
X009437Y018645D01*
X009587Y018795D01*
X009737Y018645D01*
X009737Y018345D01*
X009897Y018345D02*
X010197Y018345D01*
X010357Y018420D02*
X010432Y018345D01*
X010583Y018345D01*
X010658Y018420D01*
X010818Y018345D02*
X011043Y018345D01*
X011118Y018420D01*
X011118Y018720D01*
X011043Y018795D01*
X010818Y018795D01*
X010818Y018345D01*
X010357Y018420D02*
X010357Y018720D01*
X010432Y018795D01*
X010583Y018795D01*
X010658Y018720D01*
X009897Y018795D02*
X009897Y018345D01*
X009737Y018570D02*
X009437Y018570D01*
X008516Y018420D02*
X008516Y018720D01*
X003995Y011355D02*
X003695Y011355D01*
X003845Y011355D02*
X003845Y010905D01*
X003534Y010980D02*
X003534Y011280D01*
X003459Y011355D01*
X003309Y011355D01*
X003234Y011280D01*
X003234Y010980D01*
X003309Y010905D01*
X003459Y010905D01*
X003534Y010980D01*
X003074Y011130D02*
X002999Y011055D01*
X002774Y011055D01*
X002774Y010905D02*
X002774Y011355D01*
X002999Y011355D01*
X003074Y011280D01*
X003074Y011130D01*
X003074Y006355D02*
X003074Y005905D01*
X003234Y005980D02*
X003309Y005905D01*
X003459Y005905D01*
X003534Y005980D01*
X003534Y006055D01*
X003459Y006130D01*
X003384Y006130D01*
X003459Y006130D02*
X003534Y006205D01*
X003534Y006280D01*
X003459Y006355D01*
X003309Y006355D01*
X003234Y006280D01*
X003074Y006355D02*
X002924Y006205D01*
X002774Y006355D01*
X002774Y005905D01*
X002614Y005905D02*
X002313Y005905D01*
X002313Y006355D01*
X003695Y006130D02*
X003995Y006130D01*
X003920Y005905D02*
X003920Y006355D01*
X003695Y006130D01*
X003765Y004225D02*
X003765Y003775D01*
X003615Y003775D02*
X003915Y003775D01*
X003615Y004075D02*
X003765Y004225D01*
X003454Y004150D02*
X003454Y004000D01*
X003379Y003925D01*
X003154Y003925D01*
X003154Y003775D02*
X003154Y004225D01*
X003379Y004225D01*
X003454Y004150D01*
X003304Y003925D02*
X003454Y003775D01*
D13*
X007850Y017100D02*
X008350Y017100D01*
X008600Y017350D01*
X008850Y017100D01*
X009350Y017100D01*
X009600Y017350D01*
X009600Y017850D01*
X009350Y018100D01*
X008850Y018100D01*
X008600Y017850D01*
X008600Y017350D01*
X008600Y017850D02*
X008350Y018100D01*
X007850Y018100D01*
X007600Y017850D01*
X007600Y017350D01*
X007850Y017100D01*
X009600Y017350D02*
X009850Y017100D01*
X010350Y017100D01*
X010600Y017350D01*
X010850Y017100D01*
X011350Y017100D01*
X011600Y017350D01*
X011850Y017100D01*
X012350Y017100D01*
X012600Y017350D01*
X012600Y017850D01*
X012350Y018100D01*
X011850Y018100D01*
X011600Y017850D01*
X011600Y017350D01*
X011600Y017850D02*
X011350Y018100D01*
X010850Y018100D01*
X010600Y017850D01*
X010600Y017350D01*
X010600Y017850D02*
X010350Y018100D01*
X009850Y018100D01*
X009600Y017850D01*
X012600Y017850D02*
X012850Y018100D01*
X013350Y018100D01*
X013600Y017850D01*
X013850Y018100D01*
X014350Y018100D01*
X014600Y017850D01*
X014850Y018100D01*
X015350Y018100D01*
X015600Y017850D01*
X015600Y017350D01*
X015350Y017100D01*
X014850Y017100D01*
X014600Y017350D01*
X014350Y017100D01*
X013850Y017100D01*
X013600Y017350D01*
X013350Y017100D01*
X012850Y017100D01*
X012600Y017350D01*
X013600Y017350D02*
X013600Y017850D01*
X014600Y017850D02*
X014600Y017350D01*
X015600Y017350D02*
X015850Y017100D01*
X016350Y017100D01*
X016600Y017350D01*
X016850Y017100D01*
X017350Y017100D01*
X017600Y017350D01*
X017850Y017100D01*
X018350Y017100D01*
X018600Y017350D01*
X018600Y017850D01*
X018350Y018100D01*
X017850Y018100D01*
X017600Y017850D01*
X017600Y017350D01*
X017600Y017850D02*
X017350Y018100D01*
X016850Y018100D01*
X016600Y017850D01*
X016600Y017350D01*
X016600Y017850D02*
X016350Y018100D01*
X015850Y018100D01*
X015600Y017850D01*
X018600Y017850D02*
X018850Y018100D01*
X019350Y018100D01*
X019600Y017850D01*
X019850Y018100D01*
X020350Y018100D01*
X020600Y017850D01*
X020850Y018100D01*
X021350Y018100D01*
X021600Y017850D01*
X021600Y017350D01*
X021350Y017100D01*
X020850Y017100D01*
X020600Y017350D01*
X020350Y017100D01*
X019850Y017100D01*
X019600Y017350D01*
X019350Y017100D01*
X018850Y017100D01*
X018600Y017350D01*
X019600Y017350D02*
X019600Y017850D01*
X020600Y017850D02*
X020600Y017350D01*
X021600Y017350D02*
X021850Y017100D01*
X022350Y017100D01*
X022600Y017350D01*
X022850Y017100D01*
X023350Y017100D01*
X023600Y017350D01*
X023850Y017100D01*
X024350Y017100D01*
X024600Y017350D01*
X024850Y017100D01*
X025350Y017100D01*
X025600Y017350D01*
X025600Y017850D01*
X025350Y018100D01*
X024850Y018100D01*
X024600Y017850D01*
X024600Y017350D01*
X024600Y017850D02*
X024350Y018100D01*
X023850Y018100D01*
X023600Y017850D01*
X023600Y017350D01*
X023600Y017850D02*
X023350Y018100D01*
X022850Y018100D01*
X022600Y017850D01*
X022600Y017350D01*
X022600Y017850D02*
X022350Y018100D01*
X021850Y018100D01*
X021600Y017850D01*
D14*
X003900Y004600D02*
X003300Y004600D01*
D15*
X004100Y004600D02*
X004102Y004644D01*
X004108Y004688D01*
X004118Y004731D01*
X004131Y004773D01*
X004148Y004814D01*
X004169Y004853D01*
X004193Y004890D01*
X004220Y004925D01*
X004250Y004957D01*
X004283Y004987D01*
X004319Y005013D01*
X004356Y005037D01*
X004396Y005056D01*
X004437Y005073D01*
X004480Y005085D01*
X004523Y005094D01*
X004567Y005099D01*
X004611Y005100D01*
X004655Y005097D01*
X004699Y005090D01*
X004742Y005079D01*
X004784Y005065D01*
X004824Y005047D01*
X004863Y005025D01*
X004899Y005001D01*
X004933Y004973D01*
X004965Y004942D01*
X004994Y004908D01*
X005020Y004872D01*
X005042Y004834D01*
X005061Y004794D01*
X005076Y004752D01*
X005088Y004710D01*
X005096Y004666D01*
X005100Y004622D01*
X005100Y004578D01*
X005096Y004534D01*
X005088Y004490D01*
X005076Y004448D01*
X005061Y004406D01*
X005042Y004366D01*
X005020Y004328D01*
X004994Y004292D01*
X004965Y004258D01*
X004933Y004227D01*
X004899Y004199D01*
X004863Y004175D01*
X004824Y004153D01*
X004784Y004135D01*
X004742Y004121D01*
X004699Y004110D01*
X004655Y004103D01*
X004611Y004100D01*
X004567Y004101D01*
X004523Y004106D01*
X004480Y004115D01*
X004437Y004127D01*
X004396Y004144D01*
X004356Y004163D01*
X004319Y004187D01*
X004283Y004213D01*
X004250Y004243D01*
X004220Y004275D01*
X004193Y004310D01*
X004169Y004347D01*
X004148Y004386D01*
X004131Y004427D01*
X004118Y004469D01*
X004108Y004512D01*
X004102Y004556D01*
X004100Y004600D01*
M02*
