G75*
G70*
%OFA0B0*%
%FSLAX24Y24*%
%IPPOS*%
%LPD*%
%AMOC8*
5,1,8,0,0,1.08239X$1,22.5*
%
%ADD10OC8,0.0740*%
%ADD11C,0.0740*%
%ADD12C,0.0680*%
D10*
X002600Y004600D03*
X004600Y004600D03*
X011600Y001600D03*
X012600Y001600D03*
X013600Y001600D03*
X014600Y001600D03*
X015600Y001600D03*
X016600Y001600D03*
X017600Y001600D03*
X018600Y001600D03*
X020600Y001600D03*
X021600Y001600D03*
X022600Y001600D03*
X023600Y001600D03*
X024600Y001600D03*
X025600Y001600D03*
X025600Y020600D03*
X024600Y020600D03*
X023600Y020600D03*
X022600Y020600D03*
X021600Y020600D03*
X020600Y020600D03*
X019600Y020600D03*
X018600Y020600D03*
X017000Y020600D03*
X016000Y020600D03*
X015000Y020600D03*
X014000Y020600D03*
X013000Y020600D03*
X012000Y020600D03*
X011000Y020600D03*
X010000Y020600D03*
X009000Y020600D03*
X008000Y020600D03*
D11*
X003600Y012100D03*
X002600Y012100D03*
X001600Y012100D03*
X001600Y007100D03*
X002600Y007100D03*
X003600Y007100D03*
D12*
X008100Y017300D02*
X008100Y017900D01*
X009100Y017900D02*
X009100Y017300D01*
X010100Y017300D02*
X010100Y017900D01*
X011100Y017900D02*
X011100Y017300D01*
X012100Y017300D02*
X012100Y017900D01*
X013100Y017900D02*
X013100Y017300D01*
X014100Y017300D02*
X014100Y017900D01*
X015100Y017900D02*
X015100Y017300D01*
X016100Y017300D02*
X016100Y017900D01*
X017100Y017900D02*
X017100Y017300D01*
X018100Y017300D02*
X018100Y017900D01*
X019100Y017900D02*
X019100Y017300D01*
X020100Y017300D02*
X020100Y017900D01*
X021100Y017900D02*
X021100Y017300D01*
X022100Y017300D02*
X022100Y017900D01*
X023100Y017900D02*
X023100Y017300D01*
X024100Y017300D02*
X024100Y017900D01*
X025100Y017900D02*
X025100Y017300D01*
M02*
